<svg xmlns="http://www.w3.org/2000/svg" width="94" height="25" fill="currentColor" viewBox="0 0 94 25"><path d="M85.35 24.32c-2.368 0-4.245-.64-5.632-1.92-1.365-1.28-2.048-3.03-2.048-5.248V.64h4.8v16.48c0 .981.245 1.739.736 2.272.512.512 1.227.768 2.144.768.896 0 1.6-.256 2.112-.768.512-.533.768-1.29.768-2.272V.64h4.8v16.512c0 2.197-.693 3.947-2.08 5.248-1.365 1.28-3.232 1.92-5.6 1.92Zm-20.147.032c-2.454 0-4.406-.661-5.857-1.984-1.429-1.344-2.143-3.147-2.143-5.408h4.8c0 .981.288 1.77.864 2.368.576.576 1.354.864 2.336.864.98 0 1.76-.277 2.335-.832.577-.576.865-1.355.865-2.336V5.12h-5.28V.64h10.08v16.384c0 2.261-.715 4.053-2.145 5.376-1.429 1.301-3.38 1.952-5.856 1.952ZM38.719 24V.64h5.408L46.271 8c.235.768.405 1.44.512 2.016.128.576.203.981.224 1.216.021-.235.085-.64.192-1.216.128-.576.299-1.248.512-2.016L49.823.64h5.408V24h-4.384v-6.4c0-1.173.021-2.4.064-3.68.064-1.301.139-2.592.224-3.872.085-1.28.181-2.475.288-3.584.107-1.13.203-2.112.288-2.944l-2.688 10.56h-4.064L42.143 3.52c.107.79.213 1.739.32 2.848.107 1.088.203 2.272.288 3.552.107 1.259.192 2.55.256 3.872a78.89 78.89 0 0 1 .096 3.808V24h-4.384Zm-10.931.32c-1.643 0-3.073-.277-4.288-.832-1.216-.555-2.155-1.333-2.817-2.336-.66-1.003-.991-2.187-.991-3.552h4.8c0 .79.298 1.419.895 1.888.62.448 1.451.672 2.497.672 1.002 0 1.78-.224 2.335-.672.576-.448.864-1.067.864-1.856 0-.683-.213-1.27-.64-1.76-.426-.49-1.024-.821-1.792-.992l-2.367-.544c-1.985-.47-3.531-1.333-4.64-2.592-1.088-1.28-1.632-2.837-1.632-4.672 0-1.365.309-2.55.927-3.552.64-1.024 1.537-1.813 2.689-2.368C24.779.597 26.145.32 27.724.32c2.389 0 4.277.597 5.664 1.792 1.407 1.173 2.111 2.763 2.111 4.768h-4.8c0-.747-.266-1.333-.8-1.76-.512-.427-1.258-.64-2.24-.64-.917 0-1.62.213-2.111.64-.491.405-.736.992-.736 1.76 0 .683.191 1.27.575 1.76.406.47.971.79 1.697.96l2.495.576c2.07.47 3.638 1.323 4.704 2.56 1.067 1.216 1.6 2.773 1.6 4.672 0 1.365-.34 2.57-1.024 3.616-.66 1.045-1.6 1.856-2.816 2.432-1.194.576-2.613.864-4.255.864Zm-19.06 0c-1.557 0-2.923-.288-4.096-.864-1.173-.597-2.09-1.419-2.752-2.464-.64-1.067-.96-2.304-.96-3.712V7.36c0-1.43.32-2.667.96-3.712.661-1.045 1.579-1.856 2.752-2.432C5.805.619 7.171.32 8.728.32c1.579 0 2.944.299 4.096.896 1.173.576 2.08 1.387 2.72 2.432.661 1.045.992 2.283.992 3.712h-4.8c0-.939-.267-1.653-.8-2.144-.512-.49-1.248-.736-2.208-.736-.96 0-1.707.245-2.24.736-.512.49-.768 1.205-.768 2.144v9.92c0 .917.256 1.632.768 2.144.533.49 1.28.736 2.24.736.96 0 1.696-.245 2.208-.736.533-.512.8-1.227.8-2.144h4.8c0 1.408-.33 2.645-.992 3.712-.64 1.045-1.547 1.867-2.72 2.464-1.152.576-2.517.864-4.096.864Z"/></svg>